<?xml version="1.0" encoding="UTF-8"?>
<!DOCTYPE svg PUBLIC "-//W3C//DTD SVG 1.1//EN"
		"http://www.w3.org/Graphics/SVG/1.1/DTD/svg11.dtd">
<svg version="1.1" id="Layer_1"
		xmlns="http://www.w3.org/2000/svg" xmlns:xlink="http://www.w3.org/1999/xlink" x="0px" y="0px"
		width="1700px" height="1135.5263157895px" viewBox="0 0 344 209.6"
		style="enable-background:new 0 0 304 189.6;" xml:space="preserve"><style type="text/css">
<![CDATA[
	.st0{fill:#ADD149;}
	.st1{fill:#E6EEF2;}
	.st2{fill:#E78224;}
	.st3{fill:#EA2B7B;}
	.st4{fill:#B9C9D2;}
	.st5{fill:#EE4534;}
	.st6{fill:#EF832B;}
	.st7{fill:#8F288C;}
	.st8{fill:#282560;}
	.st9{fill:#911B1E;}
	.st10{fill:#C72127;}
	.st11{fill:#2CB356;}
	.st12{fill:#99650A;}
	.st13{fill:#FDD204;}
	.st14{fill:#664106;}
	.st15{fill:#6BA443;}
	.st16{fill:#6DCEF5;}
	.st17{fill:#0094D9;}
	.st18{fill:#00A7B9;}
	.st19{fill:#D7E4EA;}
	.st20{fill:#0E8040;}
]]>
</style><style type='text/css'>.title{fill:#282560;}.slogan{fill:#54656d;}</style><g transform="scale(1.6090798074851) translate(62.718928571429,0)"><g>
	<path class="st1" d="M18.934,55.145c-0.901-0.432-1.763-0.915-2.571-1.443c-0.836-0.545-1.628-1.138-2.363-1.769
		c-4.734-4.059-7.375-9.652-7.816-15.411c-0.439-5.748,1.316-11.673,5.373-16.401c4.059-4.73,9.652-7.373,15.41-7.813
		c5.747-0.441,11.671,1.315,16.4,5.371c2.794,2.396,4.919,5.402,6.251,8.722c1.332,3.316,1.875,6.95,1.516,10.614l-6.1-0.601
		c0.264-2.665-0.135-5.316-1.105-7.732c-0.969-2.415-2.515-4.601-4.547-6.345c-3.443-2.951-7.762-4.229-11.96-3.907
		c-4.19,0.32-8.259,2.24-11.207,5.677c-2.951,3.442-4.229,7.762-3.908,11.961c0.32,4.189,2.24,8.259,5.679,11.207
		c0.555,0.476,1.13,0.909,1.716,1.291c0.613,0.399,1.24,0.755,1.874,1.058L18.934,55.145z"/>
	<path class="st19" d="M46.371,20.803c-1.436-1.811-3.137-3.383-5.031-4.666c-1.88-1.271-3.951-2.261-6.141-2.92l-0.064-0.019
		c-5.968-1.778-12.097-0.969-17.176,1.778C12.922,17.7,8.914,22.34,7.119,28.25l-0.036,0.122
		c-1.777,5.967-0.969,12.096,1.779,17.175c2.732,5.056,7.397,9.073,13.339,10.859l0.054,0.017c3.526,1.05,7.201,1.208,10.712,0.532
		c3.506-0.676,6.856-2.187,9.734-4.469l3.818,4.802c-3.67,2.907-7.936,4.832-12.4,5.693c-4.312,0.829-8.815,0.672-13.157-0.544
		h-0.015l-0.445-0.134c-7.589-2.261-13.549-7.39-17.044-13.854c-3.42-6.323-4.475-13.928-2.389-21.37v-0.016l0.133-0.447
		c2.262-7.59,7.391-13.55,13.854-17.043c6.322-3.419,13.928-4.475,21.369-2.391h0.017l0.445,0.134
		c2.823,0.84,5.482,2.104,7.887,3.732c2.406,1.628,4.568,3.628,6.398,5.937L46.371,20.803z"/>
	<path class="st4" d="M47.24,56.662l0.004-0.004 M8.522,55.195c5.29,5.228,12.137,8.003,19.07,8.264
		c6.939,0.264,13.978-1.985,19.647-6.797l0.006-0.006c6.027-5.118,9.412-12.201,10.009-19.51c0.596-7.318-1.599-14.863-6.718-20.896
		l-0.004-0.006c-5.119-6.028-12.201-9.413-19.511-10.009c-7.321-0.598-14.868,1.597-20.902,6.72
		c-0.595,0.506-1.207,1.076-1.828,1.705l-0.006-0.005c-0.561,0.568-1.121,1.187-1.67,1.852l-4.728-3.912
		c0.622-0.753,1.305-1.502,2.035-2.242V10.34c0.675-0.684,1.424-1.373,2.235-2.064c7.326-6.22,16.478-8.884,25.344-8.16
		c8.87,0.723,17.472,4.832,23.695,12.151l0.017,0.019c6.22,7.325,8.883,16.474,8.16,25.342c-0.723,8.869-4.834,17.469-12.151,23.693
		l-0.019,0.016c-6.87,5.835-15.408,8.562-23.827,8.243C18.95,69.262,10.637,65.9,4.226,59.562L8.522,55.195z"/>
	<path class="st18" d="M43.726,28.289c0.864,1.992,1.317,4.12,1.351,6.248c0.033,1.942-0.272,3.879-0.916,5.714v0.035l-0.217,0.549
		c-1.66,4.202-4.881,7.343-8.741,9.017c-3.679,1.595-7.932,1.853-11.963,0.432h-0.036l-0.548-0.216
		c-4.203-1.66-7.343-4.88-9.017-8.741c-1.595-3.679-1.853-7.932-0.433-11.964v-0.033l0.217-0.549
		c0.438-1.105,0.998-2.168,1.667-3.157c0.659-0.976,1.435-1.891,2.311-2.719l4.226,4.442c-0.537,0.507-1.024,1.084-1.445,1.71
		c-0.398,0.589-0.739,1.228-1.01,1.899l-0.034,0.081c-1.043,2.646-0.922,5.459,0.12,7.864c1.031,2.378,2.977,4.372,5.585,5.423
		l0.071,0.028c2.645,1.045,5.459,0.922,7.863-0.12c2.39-1.036,4.392-2.991,5.438-5.621l0.015-0.034
		c0.504-1.28,0.747-2.623,0.726-3.943c-0.021-1.334-0.306-2.67-0.848-3.92L43.726,28.289z"/>
	<path class="st8" d="M28.148,45.024c-2.147-0.114-4.146-0.895-5.766-2.159c-1.616-1.267-2.857-3.019-3.485-5.077
		c-0.82-2.695-0.473-5.475,0.756-7.785l-0.01-0.005c1.227-2.307,3.344-4.148,6.059-4.977l1.777,5.859
		c-1.07,0.326-1.915,1.067-2.41,1.998h-0.012c-0.492,0.928-0.631,2.046-0.301,3.132c0.25,0.819,0.747,1.522,1.396,2.028
		c0.646,0.505,1.448,0.817,2.308,0.864L28.148,45.024z"/>
</g>
</g><g transform="scale(0.019287109375) translate(4115.4430379747, 7984.6075949367)"><path transform="translate(0,0) rotate(180) scale(-1, 1)" d="M1818 0h-761v78q25 2 73 6.5t66 12.5q37 15 51 39.5t14 62.5v829l-638 -792q0 -69 13.5 -91t50.5 -39q21 -9 66 -17.5t74 -10.5v-78h-758v78q25 1 73.5 6.5t70.5 13.5q36 13 50 39.5t14 62.5v1004q0 35 -12.5 59t-51.5 42q-29 13 -76 23.5t-68 12.5v78h761v-78 q-31 -2 -74 -10t-66 -15q-39 -13 -51.5 -41.5t-12.5 -60.5v-812l638 792q0 52 -15 73.5t-50 37.5q-29 14 -70.5 23t-68.5 13v78h758v-78q-32 -2 -72 -8.5t-72 -16.5q-38 -13 -51 -41t-13 -61v-1005q0 -36 13 -61t51 -42q24 -10 69.5 -18t74.5 -10v-78z" class='title'/><path transform="translate(1887,0) rotate(180) scale(-1, 1)" d="M1392 0h-608v73q17 3 42 7.5t45 16.5q24 14 33.5 34.5t9.5 59.5v287h-374v-287q0 -35 10 -58t33 -36q16 -9 39.5 -15t47.5 -9v-73h-608v73q25 2 50.5 5.5t43.5 9.5q32 11 44 34t12 60v628q0 35 -12.5 59.5t-43.5 34.5q-26 8 -48 10.5t-46 4.5v73h608v-73 q-24 -3 -44.5 -7.5t-42.5 -16.5q-24 -13 -33.5 -37t-9.5 -57v-230h374v230q0 33 -9 56.5t-34 37.5q-19 11 -43.5 16t-43.5 8v73h608v-73q-30 -2 -50 -5t-44 -10q-29 -9 -42.5 -32.5t-13.5 -61.5v-628q0 -36 12.5 -60.5t43.5 -33.5q24 -7 42.5 -10t51.5 -5v-73z" class='title'/><path transform="translate(3341,0) rotate(180) scale(-1, 1)" d="M1388 1013h-77q-31 91 -99.5 195t-126.5 112q-32 4 -79 7t-81 3h-47v-1113q0 -36 13 -63.5t51 -43.5q23 -9 71.5 -18.5t82.5 -13.5v-78h-791v78q29 3 81.5 8.5t71.5 13.5q39 16 52 43t13 64v1123h-47q-34 0 -81 -3t-79 -7q-58 -8 -126.5 -112t-99.5 -195h-77v406h1375 v-406z" class='title'/><path transform="translate(4742,0) rotate(180) scale(-1, 1)" d="M1133 239q-35 -57 -84.5 -107.5t-112.5 -86.5q-67 -38 -135.5 -57.5t-157.5 -19.5q-148 0 -255.5 42t-177.5 113t-104.5 167.5t-34.5 209.5q0 102 37.5 195.5t106.5 166.5q68 71 171.5 115t231.5 44q140 0 230 -34t149 -94q57 -57 83 -134.5t26 -162.5v-65h-676 q0 -205 79 -312t251 -107q94 0 169 51.5t128 130.5zM751 619q0 60 -6 123t-21 103q-17 47 -46.5 71t-74.5 24q-77 0 -123 -78t-50 -247z" class='title'/><path transform="translate(5913,0) rotate(180) scale(-1, 1)" d="M1066 411q0 154 -87.5 235.5t-251.5 81.5q-19 0 -49.5 -1.5t-45.5 -2.5v-544q9 -39 55.5 -63.5t112.5 -24.5q119 0 192.5 84.5t73.5 234.5zM1461 425q0 -106 -46.5 -188t-126.5 -136q-78 -51 -171.5 -76t-194.5 -25h-853v78q29 3 77 8.5t67 13.5q36 14 50 39t14 64v1001 q0 34 -12.5 59.5t-51.5 42.5q-28 12 -74 22t-70 13v78h1267v-406h-77q-45 116 -111.5 206t-118.5 98q-32 6 -74 9t-86 3h-237v-506q46 1 102 3.5t108 2.5q133 0 242 -21t195 -70q84 -47 133 -124.5t49 -188.5z" class='title'/></g><g transform="scale(0.0078125) translate(0, 22988.8)"><path transform="translate(0,0) rotate(180) scale(-1, 1)" d="M1142 25c0 -5.33301 -1.33398 -9.83301 -4.00098 -13.5s-7.33398 -6.83398 -14.001 -9.50098s-15.5 -4.66699 -26.5 -6s-24.833 -2 -41.5 -2c-16 0 -29.667 0.666992 -41 2s-20.166 3.33301 -26.499 6s-10.833 5.83398 -13.5 9.50098s-4 8.16699 -4 13.5v849 c0 20.667 0.333008 42.167 1 64.5s1.66699 42.5 3 60.5h-2l-17.5 -30l-20.5 -33.5l-22 -35l-22 -34.5l-560 -842c-4 -5.33301 -8 -10 -12 -14s-9.16699 -7.16699 -15.5 -9.5s-13.833 -4 -22.5 -5s-19.667 -1.5 -33 -1.5c-15.333 0 -27.833 0.666992 -37.5 2 s-17.334 3.5 -23.001 6.5s-9.66699 6.5 -12 10.5s-3.5 9 -3.5 15v1241c0 4.66699 1.5 9 4.5 13s8 7.33301 15 10s16 4.66699 27 6s24.167 2 39.5 2c16.667 0 30.5 -0.666992 41.5 -2s19.833 -3.33301 26.5 -6s11.334 -6 14.001 -10s4 -8.33301 4 -13v-854 c0 -18 -0.166992 -37.333 -0.5 -58s-1.5 -40.667 -3.5 -60h2l37.5 60.5c14.333 23.667 29.5 47.167 45.5 70.5l559 843c3.33301 4.66699 7 8.83398 11 12.501s9.16699 6.66699 15.5 9s13.833 4.16602 22.5 5.49902s19.667 2 33 2c15.333 0 27.833 -0.666992 37.5 -2 s17.334 -3.5 23.001 -6.5s9.66699 -6.33301 12 -10s3.5 -8.5 3.5 -14.5v-1242z" class='slogan'/><path transform="translate(1314,0) rotate(180) scale(-1, 1)" d="M942 25c0 -5.33301 -1.33301 -9.83301 -4 -13.5s-7 -6.83398 -13 -9.50098s-14.333 -4.66699 -25 -6s-24 -2 -40 -2c-16.667 0 -30.334 0.666992 -41.001 2s-19 3.33301 -25 6s-10.333 5.83398 -13 9.50098s-4 8.16699 -4 13.5v395h-459v-395 c0 -5.33301 -1.33301 -9.83301 -4 -13.5s-7 -6.83398 -13 -9.50098s-14.333 -4.66699 -25 -6s-24.334 -2 -41.001 -2c-16 0 -29.333 0.666992 -40 2s-19.167 3.33301 -25.5 6s-10.666 5.83398 -12.999 9.50098s-3.5 8.16699 -3.5 13.5v900 c0 5.33301 1.16699 9.83301 3.5 13.5s6.66602 7 12.999 10s14.833 5 25.5 6s24 1.5 40 1.5c16.667 0 30.334 -0.5 41.001 -1.5s19 -3 25 -6s10.333 -6.33301 13 -10s4 -8.16699 4 -13.5v-366h459v366c0 5.33301 1.33301 9.83301 4 13.5s7 7 13 10s14.333 5 25 6 s24.334 1.5 41.001 1.5c16 0 29.333 -0.5 40 -1.5s19 -3 25 -6s10.333 -6.33301 13 -10s4 -8.16699 4 -13.5v-900z" class='slogan'/><path transform="translate(2409,0) rotate(180) scale(-1, 1)" d="M1197 483c0 -70.667 -10.332 -135.668 -30.999 -195.001s-51.167 -111 -91.5 -155s-90.166 -79.333 -149.499 -106s-127.333 -42 -204 -46v-313c0 -5.33301 -1.33301 -10 -4 -14s-7 -7.33301 -13 -10s-14.333 -4.66699 -25 -6s-24 -2 -40 -2s-29.333 0.666992 -40 2 s-19.167 3.33301 -25.5 6s-10.833 6 -13.5 10s-4 8.66699 -4 14v313c-78 3.33301 -146.667 16.833 -206 40.5s-109 56.334 -149 98.001s-70 91.834 -90 150.501s-30 124.667 -30 198c0 70.667 10.333 135.667 31 195s51.167 111 91.5 155s90.166 79.167 149.499 105.5 s127 41.833 203 46.5v380c0 4.66699 1.33301 9 4 13s7.16699 7.33301 13.5 10s14.833 4.66699 25.5 6s24 2 40 2s29.333 -0.666992 40 -2s19 -3.33301 25 -6s10.333 -6 13 -10s4 -8.33301 4 -13v-380c79.333 -4 148.666 -18 207.999 -42s108.833 -56.833 148.5 -98.5 s69.5 -91.834 89.5 -150.501s30 -124 30 -196zM1026 471.999c0 108.667 -23.833 193.333 -71.5 254s-125.5 95.667 -233.5 105v-712c99.333 6 175 38.667 227 98s78 144.333 78 255zM556.001 830.998c-98.667 -5.33301 -174.001 -37.502 -226.001 -96.502 s-78 -144.5 -78 -256.5c0 -52.667 5.5 -100.167 16.5 -142.5s28.667 -78.666 53 -108.999s55.833 -54.666 94.5 -72.999s85.334 -29.833 140.001 -34.5v712z" class='slogan'/><path transform="translate(3687,0) rotate(180) scale(-1, 1)" d="M990 485c0 -73.333 -9.66699 -140.834 -29 -202.501s-48.166 -114.834 -86.499 -159.501s-86.333 -79.5 -144 -104.5s-124.5 -37.5 -200.5 -37.5c-74 0 -138.5 11 -193.5 33s-100.833 54 -137.5 96s-64 93 -82 153s-27 128 -27 204c0 73.333 9.5 140.833 28.5 202.5 s47.667 114.834 86 159.501s86.166 79.334 143.499 104.001s124.333 37 201 37c74 0 138.5 -11 193.5 -33s100.833 -54 137.5 -96s64.167 -93 82.5 -153s27.5 -127.667 27.5 -203zM816 473.999c0 48.667 -4.50098 94.666 -13.501 137.999s-23.833 81.333 -44.5 114 s-48.667 58.5 -84 77.5s-79.333 28.5 -132 28.5c-48.667 0 -90.5 -8.66699 -125.5 -26s-63.833 -41.833 -86.5 -73.5s-39.5 -69.167 -50.5 -112.5s-16.5 -90.666 -16.5 -141.999c0 -49.333 4.5 -95.666 13.5 -138.999s24 -81.166 45 -113.499s49.167 -58 84.5 -77 s79.333 -28.5 132 -28.5c48 0 89.667 8.66699 125 26s64.333 41.666 87 72.999s39.334 68.666 50.001 111.999s16 91 16 143z" class='slogan'/><path transform="translate(4767,0) rotate(180) scale(-1, 1)" d="M981 489c0 -78.667 -8.49512 -149.33 -25.4951 -211.997s-42 -115.834 -75 -159.501s-73.833 -77.334 -122.5 -101.001s-104.334 -35.5 -167.001 -35.5c-26.667 0 -51.334 2.66699 -74.001 8s-44.834 13.666 -66.501 24.999s-43.167 25.666 -64.5 42.999 s-44 37.666 -68 60.999v-450c0 -5.33301 -1.33301 -10 -4 -14s-7 -7.33301 -13 -10s-14.333 -4.66699 -25 -6s-24.334 -2 -41.001 -2c-16 0 -29.333 0.666992 -40 2s-19.167 3.33301 -25.5 6s-10.666 6 -12.999 10s-3.5 8.66699 -3.5 14v1257c0 6 1 10.833 3 14.5 s6 6.83398 12 9.50098s13.667 4.5 23 5.5s20.666 1.5 33.999 1.5c14 0 25.5 -0.5 34.5 -1.5s16.5 -2.83301 22.5 -5.5s10.167 -5.83398 12.5 -9.50098s3.5 -8.5 3.5 -14.5v-121c27.333 28 53.666 52.333 78.999 73s50.833 37.834 76.5 51.501s52 24 79 31 s55.5 10.5 85.5 10.5c65.333 0 121 -12.667 167 -38s83.5 -60 112.5 -104s50.167 -95.167 63.5 -153.5s20 -120.166 20 -185.499zM807.005 470.004c0 46 -3.50098 90.5 -10.501 133.5s-19 81.167 -36 114.5s-39.833 60 -68.5 80s-64.334 30 -107.001 30 c-21.333 0 -42.333 -3.16699 -63 -9.5s-41.667 -16.333 -63 -30s-43.666 -31.667 -66.999 -54s-48 -49.833 -74 -82.5v-358c45.333 -55.333 88.333 -97.666 129 -126.999s83.334 -44 128.001 -44c41.333 0 76.833 10 106.5 30s53.667 46.667 72 80 s31.833 70.666 40.5 111.999s13 83 13 125z" class='slogan'/><path transform="translate(5843,0) rotate(180) scale(-1, 1)" d="M1289 34c0.666992 -14.667 -3.99512 -25.0029 -13.9951 -31.0029s-30.333 -9 -61 -9c-16.667 0 -30.334 0.333008 -41.001 1s-19 2 -25 4s-10.167 4.83301 -12.5 8.5s-3.83301 8.5 -4.5 14.5l-65 525c-2 18.667 -4 38.667 -6 60l-6 65c-2 22 -3.83301 44 -5.5 66 s-3.5 42.667 -5.5 62l-1 23l-19 -61c-6.66699 -21.333 -13.834 -43 -21.501 -65l-22 -66l-19.5 -62l-189 -533c-2.66699 -8 -5.83398 -14.667 -9.50098 -20s-8.66699 -9.66602 -15 -12.999s-14.333 -5.66602 -24 -6.99902s-21.5 -2 -35.5 -2s-25.667 0.666992 -35 2 s-17.166 3.5 -23.499 6.5s-11.5 7.16699 -15.5 12.5s-7.33301 12 -10 20l-182 534l-20.5 60l-21 65.5l-20.5 66.5c-6.66699 22 -12.334 42.667 -17.001 62l-1 -23c-2 -19.333 -4 -40 -6 -62s-4.16699 -44 -6.5 -66l-7 -65c-2.33301 -21.333 -4.16602 -41.333 -5.49902 -60 l-62 -516c-0.666992 -8 -2.16699 -14.5 -4.5 -19.5s-6.83301 -8.66699 -13.5 -11s-15.334 -4 -26.001 -5s-24.667 -1.5 -42 -1.5c-16.667 0 -29.834 0.666992 -39.501 2s-17 3.66602 -22 6.99902s-8.16699 7.5 -9.5 12.5s-1.33301 11.167 0 18.5l99 852 c3.33301 21.333 10.833 37.5 22.5 48.5s29.167 16.5 52.5 16.5h79c19.333 0 35.833 -1.5 49.5 -4.5s25.334 -8.16699 35.001 -15.5s17.834 -17.166 24.501 -29.499s13 -27.833 19 -46.5l133 -383l23 -70.5c8 -23.667 15.5 -47 22.5 -70l20 -67.5l17.5 -63h2l18.5 65.5 c6.33301 23 13.166 46.333 20.499 70l22.5 70.5l22.5 67l133 381c5.33301 16.667 11.166 31.167 17.499 43.5s14.166 22.333 23.499 30s20.5 13.334 33.5 17.001s28.833 5.5 47.5 5.5h78c24 0 42.167 -5 54.5 -15s19.5 -26 21.5 -48z" class='slogan'/><path transform="translate(7228,0) rotate(180) scale(-1, 1)" d="M831 24c0 -8 -2.6748 -14.002 -8.00781 -18.002s-12.666 -7 -21.999 -9s-23 -3 -41 -3c-17.333 0 -31.166 1 -41.499 3s-17.833 5 -22.5 9s-7 10 -7 18v90c-39.333 -42 -83.166 -74.667 -131.499 -98s-99.5 -35 -153.5 -35c-47.333 0 -90.166 6.16699 -128.499 18.5 s-71 30.166 -98 53.499s-48 52 -63 86s-22.5 72.667 -22.5 116c0 50.667 10.333 94.667 31 132s50.334 68.333 89.001 93s86 43.167 142 55.5s119 18.5 189 18.5h124v70c0 34.667 -3.66699 65.334 -11 92.001s-19.166 48.834 -35.499 66.501s-37.5 31 -63.5 40 s-58 13.5 -96 13.5c-40.667 0 -77.167 -4.83301 -109.5 -14.5s-60.666 -20.334 -84.999 -32.001s-44.666 -22.334 -60.999 -32.001s-28.5 -14.5 -36.5 -14.5c-5.33301 0 -10 1.33301 -14 4s-7.5 6.66699 -10.5 12s-5.16699 12.166 -6.5 20.499s-2 17.5 -2 27.5 c0 16.667 1.16699 29.834 3.5 39.501s8 18.834 17 27.501s24.5 18.834 46.5 30.501s47.333 22.334 76 32.001s60 17.667 94 24s68.333 9.5 103 9.5c64.667 0 119.667 -7.33301 165 -22s82 -36.167 110 -64.5s48.333 -63.5 61 -105.5s19 -91 19 -147v-607zM666.992 434.998 l-141.001 0.000976562c-45.333 0 -84.666 -3.83301 -117.999 -11.5s-61 -19 -83 -34s-38.167 -33 -48.5 -54s-15.5 -45.167 -15.5 -72.5c0 -46.667 14.833 -83.834 44.5 -111.501s71.167 -41.5 124.5 -41.5c43.333 0 83.5 11 120.5 33s75.833 55.667 116.5 101v191z" class='slogan'/><path transform="translate(8209,0) rotate(180) scale(-1, 1)" d="M1080 -306c-0.666992 -7.33301 -6.66797 -12.833 -18.001 -16.5s-28.333 -5.5 -51 -5.5c-24.667 0 -42.667 2 -54 6s-17 9.33301 -17 16v306h-736c-16 -0 -28.5 4.83301 -37.5 14.5s-13.5 24.167 -13.5 43.5v867c0 5.33301 1.16699 9.83301 3.5 13.5s6.66602 7 12.999 10 s14.833 5 25.5 6s24 1.5 40 1.5c16.667 0 30.334 -0.5 41.001 -1.5s19 -3 25 -6s10.333 -6.33301 13 -10s4 -8.16699 4 -13.5v-783h431v783c0 5.33301 1.33301 9.83301 4 13.5s7.16699 7 13.5 10s14.833 5 25.5 6s24 1.5 40 1.5c16.667 0 30.334 -0.5 41.001 -1.5 s19 -3 25 -6s10.333 -6.33301 13 -10s4 -8.16699 4 -13.5v-783h125c16 0 26.667 -3 32 -9s8 -16.667 8 -32v-407z" class='slogan'/><path transform="translate(9318,0) rotate(180) scale(-1, 1)" d="M954 24c0 -4.66699 -1.32812 -8.99707 -3.99512 -12.9971s-7 -7.16699 -13 -9.5s-14.333 -4.16602 -25 -5.49902s-24 -2 -40 -2s-29.333 0.666992 -40 2s-19.334 3.16602 -26.001 5.49902s-11.334 5.5 -14.001 9.5s-4 8.33301 -4 13v518c0 26 0.666992 52.5 2 79.5 s3 53.5 5 79.5c-15.333 -26.667 -32.166 -52.834 -50.499 -78.501l-55.5 -76.5l-382 -522l-12.5 -14c-3.66699 -4 -8.33398 -7.16699 -14.001 -9.5s-12.834 -4 -21.501 -5s-19.334 -1.5 -32.001 -1.5c-14.667 0 -26.667 0.666992 -36 2s-16.833 3.16602 -22.5 5.49902 s-9.66699 5.5 -12 9.5s-3.5 8.33301 -3.5 13v902c0 4.66699 1.16699 9 3.5 13s6.66602 7.33301 12.999 10s14.833 4.5 25.5 5.5s23.667 1.5 39 1.5c32 0 54 -2.5 66 -7.5s18 -12.5 18 -22.5v-521c0 -26 -0.666992 -51.833 -2 -77.5s-3 -51.167 -5 -76.5l46.5 74.5 c15.667 24.333 32.5 48.166 50.5 71.499l387 529c4 5.33301 8.16699 10 12.5 14s9.66602 7.16699 15.999 9.5s13.833 4 22.5 5s20 1.5 34 1.5s25.833 -0.5 35.5 -1.5s17.334 -2.83301 23.001 -5.5s9.66699 -6 12 -10s3.5 -8.66699 3.5 -14v-901z" class='slogan'/><path transform="translate(10425,0) rotate(180) scale(-1, 1)" d="M990 485c0 -73.333 -9.66699 -140.834 -29 -202.501s-48.166 -114.834 -86.499 -159.501s-86.333 -79.5 -144 -104.5s-124.5 -37.5 -200.5 -37.5c-74 0 -138.5 11 -193.5 33s-100.833 54 -137.5 96s-64 93 -82 153s-27 128 -27 204c0 73.333 9.5 140.833 28.5 202.5 s47.667 114.834 86 159.501s86.166 79.334 143.499 104.001s124.333 37 201 37c74 0 138.5 -11 193.5 -33s100.833 -54 137.5 -96s64.167 -93 82.5 -153s27.5 -127.667 27.5 -203zM816 473.999c0 48.667 -4.50098 94.666 -13.501 137.999s-23.833 81.333 -44.5 114 s-48.667 58.5 -84 77.5s-79.333 28.5 -132 28.5c-48.667 0 -90.5 -8.66699 -125.5 -26s-63.833 -41.833 -86.5 -73.5s-39.5 -69.167 -50.5 -112.5s-16.5 -90.666 -16.5 -141.999c0 -49.333 4.5 -95.666 13.5 -138.999s24 -81.166 45 -113.499s49.167 -58 84.5 -77 s79.333 -28.5 132 -28.5c48 0 89.667 8.66699 125 26s64.333 41.666 87 72.999s39.334 68.666 50.001 111.999s16 91 16 143z" class='slogan'/><path transform="translate(11505,0) rotate(180) scale(-1, 1)" d="M942 25c0 -5.33301 -1.33301 -9.83301 -4 -13.5s-7 -6.83398 -13 -9.50098s-14.333 -4.66699 -25 -6s-24 -2 -40 -2c-16.667 0 -30.334 0.666992 -41.001 2s-19 3.33301 -25 6s-10.333 5.83398 -13 9.50098s-4 8.16699 -4 13.5v395h-459v-395 c0 -5.33301 -1.33301 -9.83301 -4 -13.5s-7 -6.83398 -13 -9.50098s-14.333 -4.66699 -25 -6s-24.334 -2 -41.001 -2c-16 0 -29.333 0.666992 -40 2s-19.167 3.33301 -25.5 6s-10.666 5.83398 -12.999 9.50098s-3.5 8.16699 -3.5 13.5v900 c0 5.33301 1.16699 9.83301 3.5 13.5s6.66602 7 12.999 10s14.833 5 25.5 6s24 1.5 40 1.5c16.667 0 30.334 -0.5 41.001 -1.5s19 -3 25 -6s10.333 -6.33301 13 -10s4 -8.16699 4 -13.5v-366h459v366c0 5.33301 1.33301 9.83301 4 13.5s7 7 13 10s14.333 5 25 6 s24.334 1.5 41.001 1.5c16 0 29.333 -0.5 40 -1.5s19 -3 25 -6s10.333 -6.33301 13 -10s4 -8.16699 4 -13.5v-900z" class='slogan'/><path transform="translate(12600,0) rotate(180) scale(-1, 1)" d="M942 25c0 -5.33301 -1.33301 -9.83301 -4 -13.5s-7 -6.83398 -13 -9.50098s-14.333 -4.66699 -25 -6s-24 -2 -40 -2c-16.667 0 -30.334 0.666992 -41.001 2s-19 3.33301 -25 6s-10.333 5.83398 -13 9.50098s-4 8.16699 -4 13.5v395h-459v-395 c0 -5.33301 -1.33301 -9.83301 -4 -13.5s-7 -6.83398 -13 -9.50098s-14.333 -4.66699 -25 -6s-24.334 -2 -41.001 -2c-16 0 -29.333 0.666992 -40 2s-19.167 3.33301 -25.5 6s-10.666 5.83398 -12.999 9.50098s-3.5 8.16699 -3.5 13.5v900 c0 5.33301 1.16699 9.83301 3.5 13.5s6.66602 7 12.999 10s14.833 5 25.5 6s24 1.5 40 1.5c16.667 0 30.334 -0.5 41.001 -1.5s19 -3 25 -6s10.333 -6.33301 13 -10s4 -8.16699 4 -13.5v-366h459v366c0 5.33301 1.33301 9.83301 4 13.5s7 7 13 10s14.333 5 25 6 s24.334 1.5 41.001 1.5c16 0 29.333 -0.5 40 -1.5s19 -3 25 -6s10.333 -6.33301 13 -10s4 -8.16699 4 -13.5v-900z" class='slogan'/><path transform="translate(13695,0) rotate(180) scale(-1, 1)" d="M990 485c0 -73.333 -9.66699 -140.834 -29 -202.501s-48.166 -114.834 -86.499 -159.501s-86.333 -79.5 -144 -104.5s-124.5 -37.5 -200.5 -37.5c-74 0 -138.5 11 -193.5 33s-100.833 54 -137.5 96s-64 93 -82 153s-27 128 -27 204c0 73.333 9.5 140.833 28.5 202.5 s47.667 114.834 86 159.501s86.166 79.334 143.499 104.001s124.333 37 201 37c74 0 138.5 -11 193.5 -33s100.833 -54 137.5 -96s64.167 -93 82.5 -153s27.5 -127.667 27.5 -203zM816 473.999c0 48.667 -4.50098 94.666 -13.501 137.999s-23.833 81.333 -44.5 114 s-48.667 58.5 -84 77.5s-79.333 28.5 -132 28.5c-48.667 0 -90.5 -8.66699 -125.5 -26s-63.833 -41.833 -86.5 -73.5s-39.5 -69.167 -50.5 -112.5s-16.5 -90.666 -16.5 -141.999c0 -49.333 4.5 -95.666 13.5 -138.999s24 -81.166 45 -113.499s49.167 -58 84.5 -77 s79.333 -28.5 132 -28.5c48 0 89.667 8.66699 125 26s64.333 41.666 87 72.999s39.334 68.666 50.001 111.999s16 91 16 143z" class='slogan'/><path transform="translate(14775,0) rotate(180) scale(-1, 1)" d="M558 505c0 -26 -2.99902 -43.9971 -8.99902 -53.9971s-14.667 -15 -26 -15h-418c-12 0 -21 5.16699 -27 15.5s-9 28.166 -9 53.499s3 43 9 53s15 15 27 15h418c5.33301 0 10.166 -1 14.499 -3s8 -5.83301 11 -11.5s5.33301 -12.834 7 -21.501s2.5 -19.334 2.5 -32.001z " class='slogan'/><path transform="translate(15402,0) rotate(180) scale(-1, 1)" d="M783 876c0 -13.333 -0.666992 -24.666 -2 -33.999s-3.5 -17 -6.5 -23s-6.5 -10.5 -10.5 -13.5s-9 -4.5 -15 -4.5h-270v-776c0 -5.33301 -1.33301 -9.83301 -4 -13.5s-7 -6.83398 -13 -9.50098s-14.333 -4.66699 -25 -6s-24.334 -2 -41.001 -2 c-16 0 -29.333 0.666992 -40 2s-19.167 3.33301 -25.5 6s-10.666 5.83398 -12.999 9.50098s-3.5 8.16699 -3.5 13.5v776h-270c-5.33301 0 -10.166 1.5 -14.499 4.5s-7.83301 7.5 -10.5 13.5s-4.83398 13.833 -6.50098 23.5s-2.5 21.167 -2.5 34.5 c0 12 0.833008 22.667 2.5 32s4 17.166 7 23.499s6.5 11 10.5 14s8.66699 4.5 14 4.5h705c5.33301 0 10.166 -1.5 14.499 -4.5s7.83301 -7.66699 10.5 -14s4.83398 -14.333 6.50098 -24s2.5 -20.5 2.5 -32.5z" class='slogan'/><path transform="translate(16195,0) rotate(180) scale(-1, 1)" d="M921 514c0 -26 -6.49805 -44.499 -19.498 -55.499s-27.833 -16.5 -44.5 -16.5h-590c0 -50 5 -95 15 -135s26.667 -74.333 50 -103s53.666 -50.667 90.999 -66s83 -23 137 -23c42.667 0 80.667 3.5 114 10.5s62.166 14.833 86.499 23.5s44.333 16.5 60 23.5 s27.5 10.5 35.5 10.5c4.66699 0 8.83398 -1.16699 12.501 -3.5s6.5 -5.83301 8.5 -10.5s3.5 -11.167 4.5 -19.5s1.5 -18.5 1.5 -30.5c0 -8.66699 -0.333008 -16.167 -1 -22.5s-1.5 -12 -2.5 -17s-2.66699 -9.5 -5 -13.5s-5.33301 -7.83301 -9 -11.5 s-14.5 -9.66699 -32.5 -18s-41.333 -16.5 -70 -24.5s-61.834 -15.167 -99.501 -21.5s-77.834 -9.5 -120.501 -9.5c-74 0 -138.833 10.333 -194.5 31s-102.5 51.334 -140.5 92.001s-66.667 91.667 -86 153s-29 132.666 -29 213.999c0 77.333 10 146.833 30 208.5 s48.833 114 86.5 157s83.167 76 136.5 99s113 34.5 179 34.5c70.667 0 130.834 -11.333 180.501 -34s90.5 -53.167 122.5 -91.5s55.5 -83.333 70.5 -135s22.5 -106.834 22.5 -165.501v-30zM755.002 563.001c2 86.667 -17.167 154.667 -57.5 204s-100.166 74 -179.499 74 c-40.667 0 -76.334 -7.66699 -107.001 -23s-56.334 -35.666 -77.001 -60.999s-36.667 -54.833 -48 -88.5s-17.666 -68.834 -18.999 -105.501h488z" class='slogan'/><path transform="translate(17214,0) rotate(180) scale(-1, 1)" d="M835 44c5.33301 -9.33301 8.00098 -17.1611 8.00098 -23.4941s-3.16699 -11.5 -9.5 -15.5s-16 -6.83301 -29 -8.5s-29.833 -2.5 -50.5 -2.5c-20 0 -35.833 0.5 -47.5 1.5s-21 2.66699 -28 5s-12.333 5.33301 -16 9s-6.83398 7.83398 -9.50098 12.501l-216 357l-215 -357 c-2.66699 -4.66699 -5.83398 -8.83398 -9.50098 -12.501s-9 -6.66699 -16 -9s-16.167 -4 -27.5 -5s-26.333 -1.5 -45 -1.5c-19.333 0 -35.166 0.833008 -47.499 2.5s-21.333 4.5 -27 8.5s-8.33398 9.16699 -8.00098 15.5s3.5 14.166 9.5 23.499l280 439l-265 423 c-5.33301 9.33301 -8.16602 17.166 -8.49902 23.499s2.66699 11.666 9 15.999s16 7.16602 29 8.49902s30.167 2 51.5 2c19.333 0 34.833 -0.5 46.5 -1.5s20.834 -2.5 27.501 -4.5s11.667 -4.66699 15 -8s6.33301 -7.33301 9 -12l205 -335l208 335 c2.66699 4 5.66699 7.66699 9 11s7.83301 6.16602 13.5 8.49902s13.667 4 24 5s24.5 1.5 42.5 1.5c19.333 0 35.166 -0.666992 47.499 -2s21.5 -3.83301 27.5 -7.5s8.66699 -8.83398 8 -15.501s-4 -15 -10 -25l-263 -418z" class='slogan'/><path transform="translate(18101,0) rotate(180) scale(-1, 1)" d="M942 25c0 -5.33301 -1.33301 -9.83301 -4 -13.5s-7 -6.83398 -13 -9.50098s-14.333 -4.66699 -25 -6s-24 -2 -40 -2c-16.667 0 -30.334 0.666992 -41.001 2s-19 3.33301 -25 6s-10.333 5.83398 -13 9.50098s-4 8.16699 -4 13.5v395h-459v-395 c0 -5.33301 -1.33301 -9.83301 -4 -13.5s-7 -6.83398 -13 -9.50098s-14.333 -4.66699 -25 -6s-24.334 -2 -41.001 -2c-16 0 -29.333 0.666992 -40 2s-19.167 3.33301 -25.5 6s-10.666 5.83398 -12.999 9.50098s-3.5 8.16699 -3.5 13.5v900 c0 5.33301 1.16699 9.83301 3.5 13.5s6.66602 7 12.999 10s14.833 5 25.5 6s24 1.5 40 1.5c16.667 0 30.334 -0.5 41.001 -1.5s19 -3 25 -6s10.333 -6.33301 13 -10s4 -8.16699 4 -13.5v-366h459v366c0 5.33301 1.33301 9.83301 4 13.5s7 7 13 10s14.333 5 25 6 s24.334 1.5 41.001 1.5c16 0 29.333 -0.5 40 -1.5s19 -3 25 -6s10.333 -6.33301 13 -10s4 -8.16699 4 -13.5v-900z" class='slogan'/><path transform="translate(19196,0) rotate(180) scale(-1, 1)" d="M954 24c0 -4.66699 -1.32812 -8.99707 -3.99512 -12.9971s-7 -7.16699 -13 -9.5s-14.333 -4.16602 -25 -5.49902s-24 -2 -40 -2s-29.333 0.666992 -40 2s-19.334 3.16602 -26.001 5.49902s-11.334 5.5 -14.001 9.5s-4 8.33301 -4 13v518c0 26 0.666992 52.5 2 79.5 s3 53.5 5 79.5c-15.333 -26.667 -32.166 -52.834 -50.499 -78.501l-55.5 -76.5l-382 -522l-12.5 -14c-3.66699 -4 -8.33398 -7.16699 -14.001 -9.5s-12.834 -4 -21.501 -5s-19.334 -1.5 -32.001 -1.5c-14.667 0 -26.667 0.666992 -36 2s-16.833 3.16602 -22.5 5.49902 s-9.66699 5.5 -12 9.5s-3.5 8.33301 -3.5 13v902c0 4.66699 1.16699 9 3.5 13s6.66602 7.33301 12.999 10s14.833 4.5 25.5 5.5s23.667 1.5 39 1.5c32 0 54 -2.5 66 -7.5s18 -12.5 18 -22.5v-521c0 -26 -0.666992 -51.833 -2 -77.5s-3 -51.167 -5 -76.5l46.5 74.5 c15.667 24.333 32.5 48.166 50.5 71.499l387 529c4 5.33301 8.16699 10 12.5 14s9.66602 7.16699 15.999 9.5s13.833 4 22.5 5s20 1.5 34 1.5s25.833 -0.5 35.5 -1.5s17.334 -2.83301 23.001 -5.5s9.66699 -6 12 -10s3.5 -8.66699 3.5 -14v-901z" class='slogan'/><path transform="translate(20303,0) rotate(180) scale(-1, 1)" d="M807 25c0 -5.33301 -1.33203 -9.83203 -3.99902 -13.499s-7 -6.83398 -13 -9.50098s-14.333 -4.66699 -25 -6s-24 -2 -40 -2s-29.5 0.666992 -40.5 2s-19.667 3.33301 -26 6s-10.666 5.83398 -12.999 9.50098s-3.5 8.16699 -3.5 13.5v362 c-37.333 -16.667 -76.833 -29.834 -118.5 -39.501s-86.834 -14.5 -135.501 -14.5c-62 0 -113.667 8 -155 24s-74.333 38 -99 66s-42.167 61.333 -52.5 100s-15.5 87.334 -15.5 146.001v256c0 5.33301 1.16699 9.83301 3.5 13.5s6.83301 7 13.5 10s15.167 5 25.5 6 s23.5 1.5 39.5 1.5c16.667 0 30.334 -0.5 41.001 -1.5s19 -3 25 -6s10.5 -6.33301 13.5 -10s4.5 -8.16699 4.5 -13.5v-230c0 -54 4 -94.333 12 -121s19.667 -47.834 35 -63.501s34.166 -26.667 56.499 -33s48.5 -9.5 78.5 -9.5c39.333 0 77.833 5 115.5 15 s75.167 24.333 112.5 43v399c0 5.33301 1.16699 9.83301 3.5 13.5s6.66602 7 12.999 10s15 5 26 6s24.5 1.5 40.5 1.5s29.333 -0.5 40 -1.5s19 -3 25 -6s10.333 -6.33301 13 -10s4 -8.16699 4 -13.5v-900z" class='slogan'/><path transform="translate(21263,0) rotate(180) scale(-1, 1)" d="M921 514c0 -26 -6.49805 -44.499 -19.498 -55.499s-27.833 -16.5 -44.5 -16.5h-590c0 -50 5 -95 15 -135s26.667 -74.333 50 -103s53.666 -50.667 90.999 -66s83 -23 137 -23c42.667 0 80.667 3.5 114 10.5s62.166 14.833 86.499 23.5s44.333 16.5 60 23.5 s27.5 10.5 35.5 10.5c4.66699 0 8.83398 -1.16699 12.501 -3.5s6.5 -5.83301 8.5 -10.5s3.5 -11.167 4.5 -19.5s1.5 -18.5 1.5 -30.5c0 -8.66699 -0.333008 -16.167 -1 -22.5s-1.5 -12 -2.5 -17s-2.66699 -9.5 -5 -13.5s-5.33301 -7.83301 -9 -11.5 s-14.5 -9.66699 -32.5 -18s-41.333 -16.5 -70 -24.5s-61.834 -15.167 -99.501 -21.5s-77.834 -9.5 -120.501 -9.5c-74 0 -138.833 10.333 -194.5 31s-102.5 51.334 -140.5 92.001s-66.667 91.667 -86 153s-29 132.666 -29 213.999c0 77.333 10 146.833 30 208.5 s48.833 114 86.5 157s83.167 76 136.5 99s113 34.5 179 34.5c70.667 0 130.834 -11.333 180.501 -34s90.5 -53.167 122.5 -91.5s55.5 -83.333 70.5 -135s22.5 -106.834 22.5 -165.501v-30zM755.002 563.001c2 86.667 -17.167 154.667 -57.5 204s-100.166 74 -179.499 74 c-40.667 0 -76.334 -7.66699 -107.001 -23s-56.334 -35.666 -77.001 -60.999s-36.667 -54.833 -48 -88.5s-17.666 -68.834 -18.999 -105.501h488z" class='slogan'/><path transform="translate(22282,0) rotate(180) scale(-1, 1)" d="M800 162c0 -11.333 -0.334961 -21.1729 -1.00195 -29.5059s-1.83398 -15.333 -3.50098 -21s-3.66699 -10.667 -6 -15s-7.66602 -10.666 -15.999 -18.999s-22.5 -18.666 -42.5 -30.999s-42.5 -23.333 -67.5 -33s-52.167 -17.5 -81.5 -23.5s-59.666 -9 -90.999 -9 c-64.667 0 -122 10.667 -172 32s-91.833 52.5 -125.5 93.5s-59.334 91.333 -77.001 151s-26.5 128.5 -26.5 206.5c0 88.667 10.833 164.834 32.5 228.501s51.334 115.834 89.001 156.501s82 70.834 133 90.501s106.167 29.5 165.5 29.5c28.667 0 56.5 -2.66699 83.5 -8 s51.833 -12.333 74.5 -21s42.834 -18.667 60.501 -30s30.5 -21 38.5 -29s13.5 -14.333 16.5 -19s5.5 -10.167 7.5 -16.5s3.33301 -13.5 4 -21.5s1 -18 1 -30c0 -26 -3 -44.167 -9 -54.5s-13.333 -15.5 -22 -15.5c-10 0 -21.5 5.5 -34.5 16.5s-29.5 23.167 -49.5 36.5 s-44.167 25.5 -72.5 36.5s-61.833 16.5 -100.5 16.5c-79.333 0 -140.166 -30.5 -182.499 -91.5s-63.5 -149.5 -63.5 -265.5c0 -58 5.5 -108.833 16.5 -152.5s27.167 -80.167 48.5 -109.5s47.5 -51.166 78.5 -65.499s66.5 -21.5 106.5 -21.5c38 0 71.333 6 100 18 s53.5 25.167 74.5 39.5s38.667 27.333 53 39s25.5 17.5 33.5 17.5c4.66699 0 8.66699 -1.33301 12 -4s6.16602 -7.16699 8.49902 -13.5s4 -14.333 5 -24s1.5 -21.167 1.5 -34.5z" class='slogan'/><path transform="translate(23148,0) rotate(180) scale(-1, 1)" d="M887 18c0 -4 -1.16992 -7.49902 -3.50293 -10.499s-6.66602 -5.5 -12.999 -7.5s-14.666 -3.5 -24.999 -4.5s-23.5 -1.5 -39.5 -1.5c-18.667 0 -33.834 0.666992 -45.501 2s-21.167 3.16602 -28.5 5.49902s-12.666 5.33301 -15.999 9s-5.66602 7.83398 -6.99902 12.501 l-96 233c-12 30 -24.833 55.833 -38.5 77.5s-29.5 39.167 -47.5 52.5s-38.333 23 -61 29s-48.667 9 -78 9h-70v-405c0 -3.33301 -1.66699 -6.66602 -5 -9.99902s-8.33301 -6 -15 -8s-15.334 -3.66699 -26.001 -5s-23 -2 -37 -2s-26.333 0.666992 -37 2s-19.334 3 -26.001 5 s-11.5 4.66699 -14.5 8s-4.5 6.66602 -4.5 9.99902v914c0 3.33301 1.5 6.5 4.5 9.5s7.83301 5.5 14.5 7.5s15.334 3.5 26.001 4.5s23 1.5 37 1.5s26.333 -0.5 37 -1.5s19.334 -2.5 26.001 -4.5s11.667 -4.5 15 -7.5s5 -6.16699 5 -9.5v-377h70 c25.333 0 48.5 2.83301 69.5 8.5s40.167 15 57.5 28s32.833 29.833 46.5 50.5s26.167 45.667 37.5 75l84 207c1.33301 5.33301 3.66602 10 6.99902 14s8.33301 7.33301 15 10s15.5 4.5 26.5 5.5s25.5 1.5 43.5 1.5c16 0 29.167 -0.5 39.5 -1.5s18.333 -2.5 24 -4.5 s9.5 -4.5 11.5 -7.5s3 -6.16699 3 -9.5c0 -6 -0.833008 -12.333 -2.5 -19s-4.16699 -14.334 -7.5 -23.001l-86 -198c-13.333 -33.333 -27.833 -61.333 -43.5 -84s-31.5 -41.5 -47.5 -56.5s-32.333 -26.667 -49 -35s-32.667 -14.833 -48 -19.5v-2 c23.333 -8 44.833 -17.667 64.5 -29s38 -25.333 55 -42s32.833 -36.5 47.5 -59.5s28.334 -49.5 41.001 -79.5l99 -228c2.66699 -4.66699 4.66699 -9 6 -13s2.33301 -7.83301 3 -11.5s1.16699 -6.66699 1.5 -9s0.5 -4.5 0.5 -6.5z" class='slogan'/><path transform="translate(24098,0) rotate(180) scale(-1, 1)" d="M831 24c0 -8 -2.6748 -14.002 -8.00781 -18.002s-12.666 -7 -21.999 -9s-23 -3 -41 -3c-17.333 0 -31.166 1 -41.499 3s-17.833 5 -22.5 9s-7 10 -7 18v90c-39.333 -42 -83.166 -74.667 -131.499 -98s-99.5 -35 -153.5 -35c-47.333 0 -90.166 6.16699 -128.499 18.5 s-71 30.166 -98 53.499s-48 52 -63 86s-22.5 72.667 -22.5 116c0 50.667 10.333 94.667 31 132s50.334 68.333 89.001 93s86 43.167 142 55.5s119 18.5 189 18.5h124v70c0 34.667 -3.66699 65.334 -11 92.001s-19.166 48.834 -35.499 66.501s-37.5 31 -63.5 40 s-58 13.5 -96 13.5c-40.667 0 -77.167 -4.83301 -109.5 -14.5s-60.666 -20.334 -84.999 -32.001s-44.666 -22.334 -60.999 -32.001s-28.5 -14.5 -36.5 -14.5c-5.33301 0 -10 1.33301 -14 4s-7.5 6.66699 -10.5 12s-5.16699 12.166 -6.5 20.499s-2 17.5 -2 27.5 c0 16.667 1.16699 29.834 3.5 39.501s8 18.834 17 27.501s24.5 18.834 46.5 30.501s47.333 22.334 76 32.001s60 17.667 94 24s68.333 9.5 103 9.5c64.667 0 119.667 -7.33301 165 -22s82 -36.167 110 -64.5s48.333 -63.5 61 -105.5s19 -91 19 -147v-607zM666.992 434.998 l-141.001 0.000976562c-45.333 0 -84.666 -3.83301 -117.999 -11.5s-61 -19 -83 -34s-38.167 -33 -48.5 -54s-15.5 -45.167 -15.5 -72.5c0 -46.667 14.833 -83.834 44.5 -111.501s71.167 -41.5 124.5 -41.5c43.333 0 83.5 11 120.5 33s75.833 55.667 116.5 101v191z" class='slogan'/><path transform="translate(25079,0) rotate(180) scale(-1, 1)" d="M818 25c0 -5.33301 -1.16406 -10.001 -3.49707 -14.001s-6.5 -7.16699 -12.5 -9.5s-14.333 -4.16602 -25 -5.49902s-24.667 -2 -42 -2c-16 0 -29.333 0.666992 -40 2s-19.167 3.16602 -25.5 5.49902s-10.666 5.5 -12.999 9.5s-3.5 8.66699 -3.5 14v379h-95 c-41.333 0 -73.5 -3.33301 -96.5 -10s-43.667 -17.834 -62 -33.501s-34.833 -35.667 -49.5 -60s-28.667 -54.166 -42 -89.499l-73 -176c-3.33301 -8.66699 -7 -15.667 -11 -21s-9.83301 -9.5 -17.5 -12.5s-17.334 -5 -29.001 -6s-26.167 -1.5 -43.5 -1.5 c-12.667 0 -23.834 0.333008 -33.501 1s-17.834 1.83398 -24.501 3.50098s-11.667 4.33398 -15 8.00098s-5 8.16699 -5 13.5c0 4.66699 1.83301 12.167 5.5 22.5s11.167 28.5 22.5 54.5l72 169c18.667 42.667 41.667 79.5 69 110.5s58.666 53.833 93.999 68.5 c-64.667 12 -116.167 37.833 -154.5 77.5s-57.5 92.167 -57.5 157.5c0 43.333 9 82.5 27 117.5s44.5 64.667 79.5 89s78 43 129 56s109.5 19.5 175.5 19.5c16 0 34.5 -0.333008 55.5 -1s42.667 -1.66699 65 -3s44 -2.83301 65 -4.5s39.167 -3.16699 54.5 -4.5 c20 -2 35 -9.33301 45 -22s15 -28.334 15 -47.001v-855zM653.003 828.999c-24 3.33301 -48.6699 5.49805 -74.0029 6.49805s-48.666 1.5 -69.999 1.5c-45.333 0 -83.166 -3.83301 -113.499 -11.5s-54.666 -18.667 -72.999 -33s-31.333 -31.166 -39 -50.499 s-11.5 -40.666 -11.5 -63.999c0 -24 4.5 -45.5 13.5 -64.5s22.667 -35 41 -48s41.833 -23 70.5 -30s68.667 -10.5 120 -10.5h136v304z" class='slogan'/><path transform="translate(26513,0) rotate(180) scale(-1, 1)" d="M992 489c0 -75.333 -10.332 -144.009 -30.999 -206.009s-50.667 -115.5 -90 -160.5s-87.166 -79.833 -143.499 -104.5s-119.833 -37 -190.5 -37c-73.333 0 -136.833 11.833 -190.5 35.5s-98 59.334 -133 107.001s-60.833 107.334 -77.5 179.001s-25 155.834 -25 252.501 c0 82 3.83301 157.5 11.5 226.5s18.5 131 32.5 186s30.667 101.833 50 140.5s39.166 69.334 59.499 92.001s40.333 40.834 60 54.501s41.5 26.334 65.5 38.001s51.167 21.834 81.5 30.501s64.5 16.334 102.5 23.001l321 53c11.333 2 20.666 2.83301 27.999 2.5s13 -3 17 -8 s6.66699 -13.167 8 -24.5s2 -27 2 -47c0 -13.333 -0.666992 -24.666 -2 -33.999s-3.66602 -17 -6.99902 -23s-8.33301 -10.667 -15 -14s-15.334 -6 -26.001 -8l-299 -50c-30 -4.66699 -56.333 -10 -79 -16s-42.834 -12.667 -60.501 -20s-33.167 -15.5 -46.5 -24.5 s-26.666 -20.5 -39.999 -34.5s-25.5 -31.333 -36.5 -52s-20.333 -44.167 -28 -70.5s-14 -55 -19 -86s-9.83301 -64.167 -14.5 -99.5c22 23.333 45.333 44.5 70 63.5s50.667 35.167 78 48.5s56.166 23.5 86.499 30.5s62.5 10.5 96.5 10.5 c64.667 0 121.167 -10.833 169.5 -32.5s88.333 -52.5 120 -92.5s55.334 -88 71.001 -144s23.5 -117.667 23.5 -185zM821.001 474.991c0 44 -4.16992 86.0029 -12.5029 126.003s-21.666 75.167 -39.999 105.5s-43 54.666 -74 72.999s-69.167 27.5 -114.5 27.5 c-28 0 -54.167 -3.5 -78.5 -10.5s-48.166 -17.667 -71.499 -32s-46.666 -32 -69.999 -53s-48.333 -45.833 -75 -74.5c-0.666992 -10.667 -1 -23 -1 -37v-43c0 -72 4.5 -135.333 13.5 -190s23.833 -100.334 44.5 -137.001s48 -64.334 82 -83.001s75.667 -28 125 -28 c43.333 0 82 8.5 116 25.5s62.5 40.833 85.5 71.5s40.5 68 52.5 112s18 93 18 147zM-0.00195312 950.994z" class='slogan'/><path transform="translate(27604,0) rotate(180) scale(-1, 1)" d="M921 514c0 -26 -6.49805 -44.499 -19.498 -55.499s-27.833 -16.5 -44.5 -16.5h-590c0 -50 5 -95 15 -135s26.667 -74.333 50 -103s53.666 -50.667 90.999 -66s83 -23 137 -23c42.667 0 80.667 3.5 114 10.5s62.166 14.833 86.499 23.5s44.333 16.5 60 23.5 s27.5 10.5 35.5 10.5c4.66699 0 8.83398 -1.16699 12.501 -3.5s6.5 -5.83301 8.5 -10.5s3.5 -11.167 4.5 -19.5s1.5 -18.5 1.5 -30.5c0 -8.66699 -0.333008 -16.167 -1 -22.5s-1.5 -12 -2.5 -17s-2.66699 -9.5 -5 -13.5s-5.33301 -7.83301 -9 -11.5 s-14.5 -9.66699 -32.5 -18s-41.333 -16.5 -70 -24.5s-61.834 -15.167 -99.501 -21.5s-77.834 -9.5 -120.501 -9.5c-74 0 -138.833 10.333 -194.5 31s-102.5 51.334 -140.5 92.001s-66.667 91.667 -86 153s-29 132.666 -29 213.999c0 77.333 10 146.833 30 208.5 s48.833 114 86.5 157s83.167 76 136.5 99s113 34.5 179 34.5c70.667 0 130.834 -11.333 180.501 -34s90.5 -53.167 122.5 -91.5s55.5 -83.333 70.5 -135s22.5 -106.834 22.5 -165.501v-30zM755.002 563.001c2 86.667 -17.167 154.667 -57.5 204s-100.166 74 -179.499 74 c-40.667 0 -76.334 -7.66699 -107.001 -23s-56.334 -35.666 -77.001 -60.999s-36.667 -54.833 -48 -88.5s-17.666 -68.834 -18.999 -105.501h488z" class='slogan'/><path transform="translate(28623,0) rotate(180) scale(-1, 1)" d="M776 274c0 -45.333 -9.00098 -85.999 -27.001 -121.999s-43.833 -66.833 -77.5 -92.5s-74.834 -45.167 -123.501 -58.5s-104 -20 -166 -20c-34.667 0 -67.167 2.5 -97.5 7.5s-58 11.333 -83 19s-46 16 -63 25s-29 16.5 -36 22.5s-12.167 11.5 -15.5 16.5 s-5.66602 10.5 -6.99902 16.5s-2.5 13.333 -3.5 22s-1.5 19 -1.5 31c0 10.667 0.666992 19.667 2 27s3 13.333 5 18s4.33301 8.16699 7 10.5s6.33398 3.5 11.001 3.5c7.33301 0 17.5 -4.5 30.5 -13.5s30.5 -19 52.5 -30s49.167 -21.167 81.5 -30.5s72.166 -14 119.499 -14 c33.333 0 63.333 3.5 90 10.5s49.334 17.333 68.001 31s33.167 30.834 43.5 51.501s15.5 44.667 15.5 72c0 23.333 -5 44.333 -15 63s-25.667 34.5 -47 47.5s-48.666 23.167 -81.999 30.5s-73.666 11 -120.999 11h-100c-6.66699 0 -12 1.16699 -16 3.5s-7.5 6 -10.5 11 s-5 11.667 -6 20s-1.5 18.166 -1.5 29.499c0 10.667 0.666992 20 2 28s3.33301 14.333 6 19s6 8.16699 10 10.5s9 3.5 15 3.5h97c42 0 78.167 3.33301 108.5 10s55.666 16.5 75.999 29.5s35.333 29 45 48s14.5 40.833 14.5 65.5c0 22 -4.66699 41.333 -14 58 s-21.833 30.5 -37.5 41.5s-34.834 19.333 -57.501 25s-47 8.5 -73 8.5c-40.667 0 -76.834 -4.66699 -108.501 -14s-59 -19.5 -82 -30.5s-41.833 -21 -56.5 -30s-25 -13.5 -31 -13.5c-3.33301 0 -6.5 0.833008 -9.5 2.5s-5.66699 4.66699 -8 9s-4 10.333 -5 18 s-1.5 16.834 -1.5 27.501c0 19.333 1.5 34.666 4.5 45.999s8.5 21 16.5 29s22 17.333 42 28s43.5 20.167 70.5 28.5s56.333 15.333 88 21s64.167 8.5 97.5 8.5c48.667 0 93.334 -5.16699 134.001 -15.5s75.5 -26 104.5 -47s51.5 -47 67.5 -78s24 -67.167 24 -108.5 c0 -24.667 -4 -48.167 -12 -70.5s-19.5 -42.833 -34.5 -61.5s-33.5 -35.334 -55.5 -50.001s-46.333 -26 -73 -34l-2 -1c26 -2.66699 51.667 -10.167 77 -22.5s48 -28.333 68 -48s36.167 -43 48.5 -70s18.5 -56.833 18.5 -89.5z" class='slogan'/><path transform="translate(29489,0) rotate(180) scale(-1, 1)" d="M990 485c0 -73.333 -9.66699 -140.834 -29 -202.501s-48.166 -114.834 -86.499 -159.501s-86.333 -79.5 -144 -104.5s-124.5 -37.5 -200.5 -37.5c-74 0 -138.5 11 -193.5 33s-100.833 54 -137.5 96s-64 93 -82 153s-27 128 -27 204c0 73.333 9.5 140.833 28.5 202.5 s47.667 114.834 86 159.501s86.166 79.334 143.499 104.001s124.333 37 201 37c74 0 138.5 -11 193.5 -33s100.833 -54 137.5 -96s64.167 -93 82.5 -153s27.5 -127.667 27.5 -203zM816 473.999c0 48.667 -4.50098 94.666 -13.501 137.999s-23.833 81.333 -44.5 114 s-48.667 58.5 -84 77.5s-79.333 28.5 -132 28.5c-48.667 0 -90.5 -8.66699 -125.5 -26s-63.833 -41.833 -86.5 -73.5s-39.5 -69.167 -50.5 -112.5s-16.5 -90.666 -16.5 -141.999c0 -49.333 4.5 -95.666 13.5 -138.999s24 -81.166 45 -113.499s49.167 -58 84.5 -77 s79.333 -28.5 132 -28.5c48 0 89.667 8.66699 125 26s64.333 41.666 87 72.999s39.334 68.666 50.001 111.999s16 91 16 143z" class='slogan'/><path transform="translate(30569,0) rotate(180) scale(-1, 1)" d="M913 25c0 -5.33301 -1.33301 -9.83301 -4 -13.5s-7 -6.83398 -13 -9.50098s-14.333 -4.66699 -25 -6s-24 -2 -40 -2c-16.667 0 -30.334 0.666992 -41.001 2s-19.167 3.33301 -25.5 6s-10.833 5.83398 -13.5 9.50098s-4 8.16699 -4 13.5v786h-429v-786 c0 -5.33301 -1.33301 -9.83301 -4 -13.5s-7.16699 -6.83398 -13.5 -9.50098s-14.833 -4.66699 -25.5 -6s-24 -2 -40 -2s-29.333 0.666992 -40 2s-19.167 3.33301 -25.5 6s-10.666 5.83398 -12.999 9.50098s-3.5 8.16699 -3.5 13.5v867c0 20 4.5 34.833 13.5 44.5 s21.5 14.5 37.5 14.5h659c16 0 28.333 -4.83301 37 -14.5s13 -24.5 13 -44.5v-867z" class='slogan'/><path transform="translate(31635,0) rotate(180) scale(-1, 1)" d="M831 24c0 -8 -2.6748 -14.002 -8.00781 -18.002s-12.666 -7 -21.999 -9s-23 -3 -41 -3c-17.333 0 -31.166 1 -41.499 3s-17.833 5 -22.5 9s-7 10 -7 18v90c-39.333 -42 -83.166 -74.667 -131.499 -98s-99.5 -35 -153.5 -35c-47.333 0 -90.166 6.16699 -128.499 18.5 s-71 30.166 -98 53.499s-48 52 -63 86s-22.5 72.667 -22.5 116c0 50.667 10.333 94.667 31 132s50.334 68.333 89.001 93s86 43.167 142 55.5s119 18.5 189 18.5h124v70c0 34.667 -3.66699 65.334 -11 92.001s-19.166 48.834 -35.499 66.501s-37.5 31 -63.5 40 s-58 13.5 -96 13.5c-40.667 0 -77.167 -4.83301 -109.5 -14.5s-60.666 -20.334 -84.999 -32.001s-44.666 -22.334 -60.999 -32.001s-28.5 -14.5 -36.5 -14.5c-5.33301 0 -10 1.33301 -14 4s-7.5 6.66699 -10.5 12s-5.16699 12.166 -6.5 20.499s-2 17.5 -2 27.5 c0 16.667 1.16699 29.834 3.5 39.501s8 18.834 17 27.501s24.5 18.834 46.5 30.501s47.333 22.334 76 32.001s60 17.667 94 24s68.333 9.5 103 9.5c64.667 0 119.667 -7.33301 165 -22s82 -36.167 110 -64.5s48.333 -63.5 61 -105.5s19 -91 19 -147v-607zM666.992 434.998 l-141.001 0.000976562c-45.333 0 -84.666 -3.83301 -117.999 -11.5s-61 -19 -83 -34s-38.167 -33 -48.5 -54s-15.5 -45.167 -15.5 -72.5c0 -46.667 14.833 -83.834 44.5 -111.501s71.167 -41.5 124.5 -41.5c43.333 0 83.5 11 120.5 33s75.833 55.667 116.5 101v191z" class='slogan'/><path transform="translate(32616,0) rotate(180) scale(-1, 1)" d="M800 162c0 -11.333 -0.334961 -21.1729 -1.00195 -29.5059s-1.83398 -15.333 -3.50098 -21s-3.66699 -10.667 -6 -15s-7.66602 -10.666 -15.999 -18.999s-22.5 -18.666 -42.5 -30.999s-42.5 -23.333 -67.5 -33s-52.167 -17.5 -81.5 -23.5s-59.666 -9 -90.999 -9 c-64.667 0 -122 10.667 -172 32s-91.833 52.5 -125.5 93.5s-59.334 91.333 -77.001 151s-26.5 128.5 -26.5 206.5c0 88.667 10.833 164.834 32.5 228.501s51.334 115.834 89.001 156.501s82 70.834 133 90.501s106.167 29.5 165.5 29.5c28.667 0 56.5 -2.66699 83.5 -8 s51.833 -12.333 74.5 -21s42.834 -18.667 60.501 -30s30.5 -21 38.5 -29s13.5 -14.333 16.5 -19s5.5 -10.167 7.5 -16.5s3.33301 -13.5 4 -21.5s1 -18 1 -30c0 -26 -3 -44.167 -9 -54.5s-13.333 -15.5 -22 -15.5c-10 0 -21.5 5.5 -34.5 16.5s-29.5 23.167 -49.5 36.5 s-44.167 25.5 -72.5 36.5s-61.833 16.5 -100.5 16.5c-79.333 0 -140.166 -30.5 -182.499 -91.5s-63.5 -149.5 -63.5 -265.5c0 -58 5.5 -108.833 16.5 -152.5s27.167 -80.167 48.5 -109.5s47.5 -51.166 78.5 -65.499s66.5 -21.5 106.5 -21.5c38 0 71.333 6 100 18 s53.5 25.167 74.5 39.5s38.667 27.333 53 39s25.5 17.5 33.5 17.5c4.66699 0 8.66699 -1.33301 12 -4s6.16602 -7.16699 8.49902 -13.5s4 -14.333 5 -24s1.5 -21.167 1.5 -34.5z" class='slogan'/><path transform="translate(33482,0) rotate(180) scale(-1, 1)" d="M942 25c0 -5.33301 -1.33301 -9.83301 -4 -13.5s-7 -6.83398 -13 -9.50098s-14.333 -4.66699 -25 -6s-24 -2 -40 -2c-16.667 0 -30.334 0.666992 -41.001 2s-19 3.33301 -25 6s-10.333 5.83398 -13 9.50098s-4 8.16699 -4 13.5v395h-459v-395 c0 -5.33301 -1.33301 -9.83301 -4 -13.5s-7 -6.83398 -13 -9.50098s-14.333 -4.66699 -25 -6s-24.334 -2 -41.001 -2c-16 0 -29.333 0.666992 -40 2s-19.167 3.33301 -25.5 6s-10.666 5.83398 -12.999 9.50098s-3.5 8.16699 -3.5 13.5v900 c0 5.33301 1.16699 9.83301 3.5 13.5s6.66602 7 12.999 10s14.833 5 25.5 6s24 1.5 40 1.5c16.667 0 30.334 -0.5 41.001 -1.5s19 -3 25 -6s10.333 -6.33301 13 -10s4 -8.16699 4 -13.5v-366h459v366c0 5.33301 1.33301 9.83301 4 13.5s7 7 13 10s14.333 5 25 6 s24.334 1.5 41.001 1.5c16 0 29.333 -0.5 40 -1.5s19 -3 25 -6s10.333 -6.33301 13 -10s4 -8.16699 4 -13.5v-900z" class='slogan'/><path transform="translate(34577,0) rotate(180) scale(-1, 1)" d="M990 485c0 -73.333 -9.66699 -140.834 -29 -202.501s-48.166 -114.834 -86.499 -159.501s-86.333 -79.5 -144 -104.5s-124.5 -37.5 -200.5 -37.5c-74 0 -138.5 11 -193.5 33s-100.833 54 -137.5 96s-64 93 -82 153s-27 128 -27 204c0 73.333 9.5 140.833 28.5 202.5 s47.667 114.834 86 159.501s86.166 79.334 143.499 104.001s124.333 37 201 37c74 0 138.5 -11 193.5 -33s100.833 -54 137.5 -96s64.167 -93 82.5 -153s27.5 -127.667 27.5 -203zM816 473.999c0 48.667 -4.50098 94.666 -13.501 137.999s-23.833 81.333 -44.5 114 s-48.667 58.5 -84 77.5s-79.333 28.5 -132 28.5c-48.667 0 -90.5 -8.66699 -125.5 -26s-63.833 -41.833 -86.5 -73.5s-39.5 -69.167 -50.5 -112.5s-16.5 -90.666 -16.5 -141.999c0 -49.333 4.5 -95.666 13.5 -138.999s24 -81.166 45 -113.499s49.167 -58 84.5 -77 s79.333 -28.5 132 -28.5c48 0 89.667 8.66699 125 26s64.333 41.666 87 72.999s39.334 68.666 50.001 111.999s16 91 16 143z" class='slogan'/><path transform="translate(35657,0) rotate(180) scale(-1, 1)" d="M800 162c0 -11.333 -0.334961 -21.1729 -1.00195 -29.5059s-1.83398 -15.333 -3.50098 -21s-3.66699 -10.667 -6 -15s-7.66602 -10.666 -15.999 -18.999s-22.5 -18.666 -42.5 -30.999s-42.5 -23.333 -67.5 -33s-52.167 -17.5 -81.5 -23.5s-59.666 -9 -90.999 -9 c-64.667 0 -122 10.667 -172 32s-91.833 52.5 -125.5 93.5s-59.334 91.333 -77.001 151s-26.5 128.5 -26.5 206.5c0 88.667 10.833 164.834 32.5 228.501s51.334 115.834 89.001 156.501s82 70.834 133 90.501s106.167 29.5 165.5 29.5c28.667 0 56.5 -2.66699 83.5 -8 s51.833 -12.333 74.5 -21s42.834 -18.667 60.501 -30s30.5 -21 38.5 -29s13.5 -14.333 16.5 -19s5.5 -10.167 7.5 -16.5s3.33301 -13.5 4 -21.5s1 -18 1 -30c0 -26 -3 -44.167 -9 -54.5s-13.333 -15.5 -22 -15.5c-10 0 -21.5 5.5 -34.5 16.5s-29.5 23.167 -49.5 36.5 s-44.167 25.5 -72.5 36.5s-61.833 16.5 -100.5 16.5c-79.333 0 -140.166 -30.5 -182.499 -91.5s-63.5 -149.5 -63.5 -265.5c0 -58 5.5 -108.833 16.5 -152.5s27.167 -80.167 48.5 -109.5s47.5 -51.166 78.5 -65.499s66.5 -21.5 106.5 -21.5c38 0 71.333 6 100 18 s53.5 25.167 74.5 39.5s38.667 27.333 53 39s25.5 17.5 33.5 17.5c4.66699 0 8.66699 -1.33301 12 -4s6.16602 -7.16699 8.49902 -13.5s4 -14.333 5 -24s1.5 -21.167 1.5 -34.5z" class='slogan'/><path transform="translate(36523,0) rotate(180) scale(-1, 1)" d="M783 876c0 -13.333 -0.666992 -24.666 -2 -33.999s-3.5 -17 -6.5 -23s-6.5 -10.5 -10.5 -13.5s-9 -4.5 -15 -4.5h-270v-776c0 -5.33301 -1.33301 -9.83301 -4 -13.5s-7 -6.83398 -13 -9.50098s-14.333 -4.66699 -25 -6s-24.334 -2 -41.001 -2 c-16 0 -29.333 0.666992 -40 2s-19.167 3.33301 -25.5 6s-10.666 5.83398 -12.999 9.50098s-3.5 8.16699 -3.5 13.5v776h-270c-5.33301 0 -10.166 1.5 -14.499 4.5s-7.83301 7.5 -10.5 13.5s-4.83398 13.833 -6.50098 23.5s-2.5 21.167 -2.5 34.5 c0 12 0.833008 22.667 2.5 32s4 17.166 7 23.499s6.5 11 10.5 14s8.66699 4.5 14 4.5h705c5.33301 0 10.166 -1.5 14.499 -4.5s7.83301 -7.66699 10.5 -14s4.83398 -14.333 6.50098 -24s2.5 -20.5 2.5 -32.5z" class='slogan'/><path transform="translate(37316,0) rotate(180) scale(-1, 1)" d="M900 311c0 -46 -8.49902 -89 -25.499 -129s-43.5 -74.667 -79.5 -104s-82 -52.5 -138 -69.5s-123 -25.5 -201 -25.5c-18 0 -36.667 0.166992 -56 0.5s-38.333 1 -57 2s-37 2.16699 -55 3.5s-35.667 3 -53 5c-28 3.33301 -48.667 12.333 -62 27s-20 37 -20 67v837 c0 5.33301 1.16699 9.83301 3.5 13.5s6.66602 7 12.999 10s14.833 5 25.5 6s24 1.5 40 1.5s29.333 -0.5 40 -1.5s19.167 -3 25.5 -6s10.833 -6.33301 13.5 -10s4 -8.16699 4 -13.5v-317c24.667 2 51.334 3.5 80.001 4.5s58 1.5 88 1.5 c72.667 0 135.167 -7.16699 187.5 -21.5s95.166 -34.833 128.499 -61.5s58 -58.5 74 -95.5s24 -78.5 24 -124.5zM726.001 300c0 27.333 -4.33398 52.168 -13.001 74.501s-23 41.333 -43 57s-46 27.667 -78 36s-71.333 12.5 -118 12.5c-28 0 -55.5 -0.666992 -82.5 -2 s-51.5 -3 -73.5 -5v-346c23.333 -2.66699 48.333 -5 75 -7s56.334 -3 89.001 -3c82.667 0 144 16.167 184 48.5s60 77.166 60 134.499z" class='slogan'/></g></svg>